<mxfile host="Electron" agent="Mozilla/5.0 (Windows NT 10.0; Win64; x64) AppleWebKit/537.36 (KHTML, like Gecko) draw.io/27.0.9 Chrome/134.0.6998.205 Electron/35.4.0 Safari/537.36" version="27.0.9">
  <diagram name="Page-1" id="FLmFSH2fauOtFWgZKn3T">
    <mxGraphModel dx="3443" dy="2691" grid="1" gridSize="10" guides="1" tooltips="1" connect="1" arrows="1" fold="1" page="1" pageScale="1" pageWidth="850" pageHeight="1100" math="0" shadow="0">
      <root>
        <mxCell id="0" />
        <mxCell id="1" parent="0" />
        <mxCell id="w6yxfU8nCAinHJ-jUUho-40" value="" style="ellipse;whiteSpace=wrap;html=1;aspect=fixed;dashed=1;fillColor=#bac8d3;strokeColor=#23445d;labelBorderColor=none;" parent="1" vertex="1">
          <mxGeometry x="-560" y="-313.5" width="1873.5" height="1873.5" as="geometry" />
        </mxCell>
        <mxCell id="w6yxfU8nCAinHJ-jUUho-39" value="" style="ellipse;whiteSpace=wrap;html=1;aspect=fixed;fillColor=#dae8fc;dashed=1;strokeColor=#6c8ebf;" parent="1" vertex="1">
          <mxGeometry x="-270" y="-30" width="1299" height="1299" as="geometry" />
        </mxCell>
        <mxCell id="w6yxfU8nCAinHJ-jUUho-38" value="" style="ellipse;whiteSpace=wrap;html=1;aspect=fixed;fillColor=#f5f5f5;dashed=1;strokeColor=#666666;fontColor=#333333;" parent="1" vertex="1">
          <mxGeometry x="-16" y="250" width="800" height="800" as="geometry" />
        </mxCell>
        <mxCell id="w6yxfU8nCAinHJ-jUUho-1" value="SOA.Entities" style="rounded=1;whiteSpace=wrap;html=1;fillColor=none;fontSize=15;" parent="1" vertex="1">
          <mxGeometry x="92" y="800" width="172" height="87" as="geometry" />
        </mxCell>
        <mxCell id="Z9Wd2oGmMGnyA7L_e7f--10" style="edgeStyle=orthogonalEdgeStyle;rounded=0;orthogonalLoop=1;jettySize=auto;html=1;exitX=0;exitY=0.75;exitDx=0;exitDy=0;entryX=0.75;entryY=0;entryDx=0;entryDy=0;" parent="1" source="w6yxfU8nCAinHJ-jUUho-3" target="w6yxfU8nCAinHJ-jUUho-1" edge="1">
          <mxGeometry relative="1" as="geometry" />
        </mxCell>
        <mxCell id="w6yxfU8nCAinHJ-jUUho-3" value="SOA.Interfaces" style="rounded=1;whiteSpace=wrap;html=1;fillColor=none;fontSize=15;" parent="1" vertex="1">
          <mxGeometry x="520" y="456" width="210" height="94" as="geometry" />
        </mxCell>
        <mxCell id="w6yxfU8nCAinHJ-jUUho-7" style="edgeStyle=orthogonalEdgeStyle;rounded=0;orthogonalLoop=1;jettySize=auto;html=1;exitX=0.5;exitY=1;exitDx=0;exitDy=0;entryX=1;entryY=0.5;entryDx=0;entryDy=0;" parent="1" source="w6yxfU8nCAinHJ-jUUho-6" target="w6yxfU8nCAinHJ-jUUho-3" edge="1">
          <mxGeometry relative="1" as="geometry" />
        </mxCell>
        <mxCell id="2m3COZUi8nTuCEncUUFN-5" style="edgeStyle=orthogonalEdgeStyle;rounded=0;orthogonalLoop=1;jettySize=auto;html=1;entryX=0.5;entryY=0;entryDx=0;entryDy=0;exitX=0.75;exitY=1;exitDx=0;exitDy=0;" edge="1" parent="1" source="w6yxfU8nCAinHJ-jUUho-6" target="w6yxfU8nCAinHJ-jUUho-10">
          <mxGeometry relative="1" as="geometry">
            <Array as="points">
              <mxPoint x="865" y="520" />
              <mxPoint x="920" y="520" />
              <mxPoint x="920" y="700" />
              <mxPoint x="895" y="700" />
            </Array>
          </mxGeometry>
        </mxCell>
        <mxCell id="2m3COZUi8nTuCEncUUFN-6" style="edgeStyle=orthogonalEdgeStyle;rounded=0;orthogonalLoop=1;jettySize=auto;html=1;entryX=0.75;entryY=0;entryDx=0;entryDy=0;exitX=0.25;exitY=0;exitDx=0;exitDy=0;" edge="1" parent="1" source="w6yxfU8nCAinHJ-jUUho-6" target="2m3COZUi8nTuCEncUUFN-1">
          <mxGeometry relative="1" as="geometry">
            <Array as="points">
              <mxPoint x="830" y="420" />
              <mxPoint x="830" y="360" />
              <mxPoint x="-50" y="360" />
              <mxPoint x="-50" y="415" />
            </Array>
          </mxGeometry>
        </mxCell>
        <mxCell id="2m3COZUi8nTuCEncUUFN-7" style="edgeStyle=orthogonalEdgeStyle;rounded=0;orthogonalLoop=1;jettySize=auto;html=1;entryX=1;entryY=0.5;entryDx=0;entryDy=0;" edge="1" parent="1" source="w6yxfU8nCAinHJ-jUUho-6" target="w6yxfU8nCAinHJ-jUUho-1">
          <mxGeometry relative="1" as="geometry" />
        </mxCell>
        <mxCell id="w6yxfU8nCAinHJ-jUUho-6" value="SOA.Commands" style="rounded=1;whiteSpace=wrap;html=1;fillColor=none;fontSize=15;" parent="1" vertex="1">
          <mxGeometry x="776" y="420" width="199" height="92" as="geometry" />
        </mxCell>
        <mxCell id="2m3COZUi8nTuCEncUUFN-2" style="edgeStyle=orthogonalEdgeStyle;rounded=0;orthogonalLoop=1;jettySize=auto;html=1;entryX=1;entryY=0.5;entryDx=0;entryDy=0;exitX=0;exitY=0.75;exitDx=0;exitDy=0;" edge="1" parent="1" source="w6yxfU8nCAinHJ-jUUho-8" target="2m3COZUi8nTuCEncUUFN-1">
          <mxGeometry relative="1" as="geometry">
            <Array as="points">
              <mxPoint x="310" y="193" />
              <mxPoint x="310" y="390" />
            </Array>
          </mxGeometry>
        </mxCell>
        <mxCell id="2m3COZUi8nTuCEncUUFN-3" style="edgeStyle=orthogonalEdgeStyle;rounded=0;orthogonalLoop=1;jettySize=auto;html=1;entryX=0.5;entryY=0;entryDx=0;entryDy=0;" edge="1" parent="1" source="w6yxfU8nCAinHJ-jUUho-8" target="w6yxfU8nCAinHJ-jUUho-1">
          <mxGeometry relative="1" as="geometry" />
        </mxCell>
        <mxCell id="2m3COZUi8nTuCEncUUFN-4" style="edgeStyle=orthogonalEdgeStyle;rounded=0;orthogonalLoop=1;jettySize=auto;html=1;entryX=0.75;entryY=0;entryDx=0;entryDy=0;" edge="1" parent="1" source="w6yxfU8nCAinHJ-jUUho-8" target="w6yxfU8nCAinHJ-jUUho-3">
          <mxGeometry relative="1" as="geometry" />
        </mxCell>
        <mxCell id="w6yxfU8nCAinHJ-jUUho-8" value="SOA.Queries" style="rounded=1;whiteSpace=wrap;html=1;fillColor=none;fontSize=15;" parent="1" vertex="1">
          <mxGeometry x="621" y="120" width="179" height="84" as="geometry" />
        </mxCell>
        <mxCell id="w6yxfU8nCAinHJ-jUUho-10" value="SOA.DomainEvents" style="rounded=1;whiteSpace=wrap;html=1;fillColor=none;fontSize=15;" parent="1" vertex="1">
          <mxGeometry x="800" y="740" width="190" height="80" as="geometry" />
        </mxCell>
        <mxCell id="w6yxfU8nCAinHJ-jUUho-18" style="edgeStyle=orthogonalEdgeStyle;rounded=0;orthogonalLoop=1;jettySize=auto;html=1;exitX=0;exitY=0.75;exitDx=0;exitDy=0;entryX=0.5;entryY=1;entryDx=0;entryDy=0;" parent="1" source="w6yxfU8nCAinHJ-jUUho-16" target="w6yxfU8nCAinHJ-jUUho-1" edge="1">
          <mxGeometry relative="1" as="geometry" />
        </mxCell>
        <mxCell id="w6yxfU8nCAinHJ-jUUho-16" value="&lt;div style=&quot;font-size: 15px;&quot;&gt;SOA.Factories&lt;/div&gt;" style="rounded=1;whiteSpace=wrap;html=1;fillColor=none;fontSize=15;" parent="1" vertex="1">
          <mxGeometry x="260" y="660" width="190" height="80" as="geometry" />
        </mxCell>
        <mxCell id="w6yxfU8nCAinHJ-jUUho-31" style="edgeStyle=orthogonalEdgeStyle;rounded=0;orthogonalLoop=1;jettySize=auto;html=1;entryX=0.5;entryY=0;entryDx=0;entryDy=0;exitX=0.12;exitY=1.024;exitDx=0;exitDy=0;exitPerimeter=0;" parent="1" source="w6yxfU8nCAinHJ-jUUho-26" target="w6yxfU8nCAinHJ-jUUho-8" edge="1">
          <mxGeometry relative="1" as="geometry">
            <mxPoint x="500" y="210" as="sourcePoint" />
          </mxGeometry>
        </mxCell>
        <mxCell id="w6yxfU8nCAinHJ-jUUho-32" style="edgeStyle=orthogonalEdgeStyle;rounded=0;orthogonalLoop=1;jettySize=auto;html=1;exitX=1;exitY=0.5;exitDx=0;exitDy=0;" parent="1" source="w6yxfU8nCAinHJ-jUUho-26" target="w6yxfU8nCAinHJ-jUUho-6" edge="1">
          <mxGeometry relative="1" as="geometry" />
        </mxCell>
        <mxCell id="w6yxfU8nCAinHJ-jUUho-35" style="edgeStyle=orthogonalEdgeStyle;rounded=0;orthogonalLoop=1;jettySize=auto;html=1;exitX=0;exitY=0.5;exitDx=0;exitDy=0;" parent="1" source="w6yxfU8nCAinHJ-jUUho-26" target="w6yxfU8nCAinHJ-jUUho-3" edge="1">
          <mxGeometry relative="1" as="geometry" />
        </mxCell>
        <mxCell id="w6yxfU8nCAinHJ-jUUho-36" style="edgeStyle=orthogonalEdgeStyle;rounded=0;orthogonalLoop=1;jettySize=auto;html=1;exitX=0.75;exitY=1;exitDx=0;exitDy=0;entryX=0.75;entryY=0;entryDx=0;entryDy=0;" parent="1" source="w6yxfU8nCAinHJ-jUUho-26" target="w6yxfU8nCAinHJ-jUUho-16" edge="1">
          <mxGeometry relative="1" as="geometry" />
        </mxCell>
        <mxCell id="2m3COZUi8nTuCEncUUFN-12" style="edgeStyle=orthogonalEdgeStyle;rounded=0;orthogonalLoop=1;jettySize=auto;html=1;entryX=1;entryY=1;entryDx=0;entryDy=0;" edge="1" parent="1" source="w6yxfU8nCAinHJ-jUUho-26" target="WUf349sa_xHHxx_Rq2RV-1">
          <mxGeometry relative="1" as="geometry" />
        </mxCell>
        <mxCell id="w6yxfU8nCAinHJ-jUUho-26" value="&lt;div style=&quot;font-size: 15px;&quot;&gt;SOA.API&lt;/div&gt;" style="rounded=1;whiteSpace=wrap;html=1;fillColor=none;fontSize=15;" parent="1" vertex="1">
          <mxGeometry x="621" y="-130" width="140" height="69" as="geometry" />
        </mxCell>
        <mxCell id="2m3COZUi8nTuCEncUUFN-9" style="edgeStyle=orthogonalEdgeStyle;rounded=0;orthogonalLoop=1;jettySize=auto;html=1;entryX=0.25;entryY=1;entryDx=0;entryDy=0;" edge="1" parent="1" source="w6yxfU8nCAinHJ-jUUho-41" target="w6yxfU8nCAinHJ-jUUho-1">
          <mxGeometry relative="1" as="geometry" />
        </mxCell>
        <mxCell id="2m3COZUi8nTuCEncUUFN-10" style="edgeStyle=orthogonalEdgeStyle;rounded=0;orthogonalLoop=1;jettySize=auto;html=1;entryX=0.5;entryY=1;entryDx=0;entryDy=0;" edge="1" parent="1" source="w6yxfU8nCAinHJ-jUUho-41" target="w6yxfU8nCAinHJ-jUUho-3">
          <mxGeometry relative="1" as="geometry" />
        </mxCell>
        <mxCell id="w6yxfU8nCAinHJ-jUUho-41" value="SOA.Persistence" style="rounded=1;whiteSpace=wrap;html=1;fillColor=none;fontSize=15;" parent="1" vertex="1">
          <mxGeometry x="-220" y="1180" width="204" height="90" as="geometry" />
        </mxCell>
        <mxCell id="Z9Wd2oGmMGnyA7L_e7f--3" style="edgeStyle=orthogonalEdgeStyle;rounded=0;orthogonalLoop=1;jettySize=auto;html=1;exitX=0.5;exitY=1;exitDx=0;exitDy=0;entryX=0;entryY=0.5;entryDx=0;entryDy=0;" parent="1" source="Z9Wd2oGmMGnyA7L_e7f--1" target="w6yxfU8nCAinHJ-jUUho-8" edge="1">
          <mxGeometry relative="1" as="geometry" />
        </mxCell>
        <mxCell id="Z9Wd2oGmMGnyA7L_e7f--4" style="edgeStyle=orthogonalEdgeStyle;rounded=0;orthogonalLoop=1;jettySize=auto;html=1;exitX=1;exitY=0.25;exitDx=0;exitDy=0;entryX=0.75;entryY=0;entryDx=0;entryDy=0;" parent="1" source="Z9Wd2oGmMGnyA7L_e7f--1" target="w6yxfU8nCAinHJ-jUUho-6" edge="1">
          <mxGeometry relative="1" as="geometry" />
        </mxCell>
        <mxCell id="eWdU1vIHaHKnhdsmp3fb-1" style="edgeStyle=orthogonalEdgeStyle;rounded=0;orthogonalLoop=1;jettySize=auto;html=1;exitX=0.25;exitY=1;exitDx=0;exitDy=0;entryX=0.25;entryY=0;entryDx=0;entryDy=0;" parent="1" source="Z9Wd2oGmMGnyA7L_e7f--1" target="w6yxfU8nCAinHJ-jUUho-1" edge="1">
          <mxGeometry relative="1" as="geometry" />
        </mxCell>
        <mxCell id="2m3COZUi8nTuCEncUUFN-13" style="edgeStyle=orthogonalEdgeStyle;rounded=0;orthogonalLoop=1;jettySize=auto;html=1;entryX=0.25;entryY=0;entryDx=0;entryDy=0;" edge="1" parent="1" source="Z9Wd2oGmMGnyA7L_e7f--1" target="w6yxfU8nCAinHJ-jUUho-3">
          <mxGeometry relative="1" as="geometry" />
        </mxCell>
        <mxCell id="2m3COZUi8nTuCEncUUFN-14" style="edgeStyle=orthogonalEdgeStyle;rounded=0;orthogonalLoop=1;jettySize=auto;html=1;" edge="1" parent="1" source="Z9Wd2oGmMGnyA7L_e7f--1" target="w6yxfU8nCAinHJ-jUUho-16">
          <mxGeometry relative="1" as="geometry" />
        </mxCell>
        <mxCell id="2m3COZUi8nTuCEncUUFN-15" style="edgeStyle=orthogonalEdgeStyle;rounded=0;orthogonalLoop=1;jettySize=auto;html=1;" edge="1" parent="1" source="Z9Wd2oGmMGnyA7L_e7f--1" target="2m3COZUi8nTuCEncUUFN-1">
          <mxGeometry relative="1" as="geometry" />
        </mxCell>
        <mxCell id="Z9Wd2oGmMGnyA7L_e7f--1" value="SOA.Tests" style="rounded=1;whiteSpace=wrap;html=1;fillColor=none;fontSize=15;" parent="1" vertex="1">
          <mxGeometry x="20" y="-180" width="190" height="80" as="geometry" />
        </mxCell>
        <mxCell id="Z9Wd2oGmMGnyA7L_e7f--7" value="UI" style="rounded=1;whiteSpace=wrap;html=1;fillColor=none;fontSize=15;" parent="1" vertex="1">
          <mxGeometry x="840" y="1170" width="135" height="80" as="geometry" />
        </mxCell>
        <mxCell id="Z9Wd2oGmMGnyA7L_e7f--15" value="SOA&lt;div style=&quot;font-size: 35px;&quot;&gt;Layered&amp;nbsp;&lt;span style=&quot;background-color: initial; font-size: 35px;&quot;&gt;Application Architecture&lt;/span&gt;&lt;/div&gt;" style="text;html=1;align=center;verticalAlign=middle;whiteSpace=wrap;rounded=0;fontStyle=1;fontSize=35;" parent="1" vertex="1">
          <mxGeometry x="130" y="-440" width="611" height="100" as="geometry" />
        </mxCell>
        <mxCell id="2m3COZUi8nTuCEncUUFN-8" style="edgeStyle=orthogonalEdgeStyle;rounded=0;orthogonalLoop=1;jettySize=auto;html=1;entryX=0;entryY=0.5;entryDx=0;entryDy=0;" edge="1" parent="1" source="8oZCDSHBBiEf-VT1UEIX-1" target="w6yxfU8nCAinHJ-jUUho-3">
          <mxGeometry relative="1" as="geometry">
            <Array as="points">
              <mxPoint x="-50" y="865" />
              <mxPoint x="-50" y="503" />
            </Array>
          </mxGeometry>
        </mxCell>
        <mxCell id="8oZCDSHBBiEf-VT1UEIX-1" value="SOA.Infrastructura" style="rounded=1;whiteSpace=wrap;html=1;fillColor=none;fontSize=15;" parent="1" vertex="1">
          <mxGeometry x="-460" y="830" width="180" height="70" as="geometry" />
        </mxCell>
        <mxCell id="FkwA9XZLPu9-d_vQuy5E-12" value="" style="endArrow=oval;startArrow=oval;html=1;rounded=0;strokeWidth=3;exitX=1.001;exitY=0.485;exitDx=0;exitDy=0;exitPerimeter=0;dashed=1;dashPattern=1 1;startFill=1;endFill=1;entryX=0.001;entryY=0.485;entryDx=0;entryDy=0;entryPerimeter=0;labelBackgroundColor=default;" parent="1" target="w6yxfU8nCAinHJ-jUUho-39" edge="1">
          <mxGeometry width="50" height="50" relative="1" as="geometry">
            <mxPoint x="1029.299" y="612.0149999999999" as="sourcePoint" />
            <mxPoint x="-274" y="600" as="targetPoint" />
          </mxGeometry>
        </mxCell>
        <mxCell id="FkwA9XZLPu9-d_vQuy5E-13" value="&lt;font style=&quot;font-size: 45px;&quot;&gt;Core&lt;/font&gt;" style="edgeLabel;html=1;align=center;verticalAlign=middle;resizable=0;points=[];labelBackgroundColor=default;fontSize=31;fontStyle=1" parent="FkwA9XZLPu9-d_vQuy5E-12" vertex="1" connectable="0">
          <mxGeometry x="0.1658" y="-5" relative="1" as="geometry">
            <mxPoint x="110" y="-2" as="offset" />
          </mxGeometry>
        </mxCell>
        <mxCell id="FkwA9XZLPu9-d_vQuy5E-17" value="" style="endArrow=none;dashed=1;html=1;strokeWidth=3;rounded=0;entryX=0.5;entryY=1;entryDx=0;entryDy=0;dashPattern=1 1;" parent="1" source="w6yxfU8nCAinHJ-jUUho-40" target="w6yxfU8nCAinHJ-jUUho-39" edge="1">
          <mxGeometry width="50" height="50" relative="1" as="geometry">
            <mxPoint x="330" y="1360" as="sourcePoint" />
            <mxPoint x="380" y="1310" as="targetPoint" />
          </mxGeometry>
        </mxCell>
        <mxCell id="FkwA9XZLPu9-d_vQuy5E-19" value="" style="endArrow=none;dashed=1;html=1;strokeWidth=3;rounded=0;dashPattern=1 1;" parent="1" edge="1">
          <mxGeometry width="50" height="50" relative="1" as="geometry">
            <mxPoint x="383" y="-30" as="sourcePoint" />
            <mxPoint x="383" y="-310" as="targetPoint" />
          </mxGeometry>
        </mxCell>
        <mxCell id="FkwA9XZLPu9-d_vQuy5E-20" value="" style="endArrow=none;dashed=1;html=1;strokeWidth=3;rounded=0;exitX=0.007;exitY=0.438;exitDx=0;exitDy=0;exitPerimeter=0;entryX=-0.002;entryY=0.464;entryDx=0;entryDy=0;entryPerimeter=0;fontStyle=1;dashPattern=1 1;" parent="1" target="w6yxfU8nCAinHJ-jUUho-40" edge="1">
          <mxGeometry width="50" height="50" relative="1" as="geometry">
            <mxPoint x="-269.9970000000001" y="563.192" as="sourcePoint" />
            <mxPoint x="-525" y="563" as="targetPoint" />
          </mxGeometry>
        </mxCell>
        <mxCell id="FkwA9XZLPu9-d_vQuy5E-21" value="" style="endArrow=none;dashed=1;html=1;strokeWidth=3;rounded=0;exitX=0.999;exitY=0.466;exitDx=0;exitDy=0;exitPerimeter=0;dashPattern=1 1;" parent="1" source="w6yxfU8nCAinHJ-jUUho-40" edge="1">
          <mxGeometry width="50" height="50" relative="1" as="geometry">
            <mxPoint x="1284.003" y="560.192" as="sourcePoint" />
            <mxPoint x="1029" y="560" as="targetPoint" />
          </mxGeometry>
        </mxCell>
        <mxCell id="FkwA9XZLPu9-d_vQuy5E-23" value="Application" style="ellipse;whiteSpace=wrap;html=1;aspect=fixed;fillColor=#dae8fc;dashed=1;strokeColor=#6c8ebf;fontStyle=1;fontSize=30;" parent="1" vertex="1">
          <mxGeometry x="-800" y="440" width="170" height="170" as="geometry" />
        </mxCell>
        <mxCell id="FkwA9XZLPu9-d_vQuy5E-24" value="&lt;font style=&quot;font-size: 30px;&quot;&gt;&lt;b&gt;Domain&lt;/b&gt;&lt;/font&gt;" style="ellipse;whiteSpace=wrap;html=1;aspect=fixed;fillColor=#f5f5f5;dashed=1;strokeColor=#666666;fontColor=#333333;" parent="1" vertex="1">
          <mxGeometry x="-800" y="245" width="170" height="170" as="geometry" />
        </mxCell>
        <mxCell id="FkwA9XZLPu9-d_vQuy5E-25" value="&lt;font style=&quot;font-size: 28px;&quot;&gt;Infra&lt;/font&gt;&lt;div style=&quot;font-size: 28px;&quot;&gt;UI&lt;/div&gt;&lt;div style=&quot;font-size: 28px;&quot;&gt;DB&lt;/div&gt;&lt;div style=&quot;font-size: 28px;&quot;&gt;Test&lt;/div&gt;" style="ellipse;whiteSpace=wrap;html=1;aspect=fixed;dashed=1;fillColor=#bac8d3;strokeColor=#23445d;fontSize=28;fontStyle=1" parent="1" vertex="1">
          <mxGeometry x="-800" y="638" width="170" height="170" as="geometry" />
        </mxCell>
        <mxCell id="eWdU1vIHaHKnhdsmp3fb-2" style="edgeStyle=orthogonalEdgeStyle;rounded=0;orthogonalLoop=1;jettySize=auto;html=1;exitX=0.5;exitY=0;exitDx=0;exitDy=0;entryX=0.874;entryY=1.05;entryDx=0;entryDy=0;entryPerimeter=0;" parent="1" source="w6yxfU8nCAinHJ-jUUho-16" target="w6yxfU8nCAinHJ-jUUho-3" edge="1">
          <mxGeometry relative="1" as="geometry" />
        </mxCell>
        <mxCell id="eWdU1vIHaHKnhdsmp3fb-3" value="Test" style="text;html=1;align=center;verticalAlign=middle;whiteSpace=wrap;rounded=0;fontSize=31;fontStyle=1" parent="1" vertex="1">
          <mxGeometry x="-230" y="90" width="60" height="30" as="geometry" />
        </mxCell>
        <mxCell id="eWdU1vIHaHKnhdsmp3fb-4" value="API" style="text;html=1;align=center;verticalAlign=middle;whiteSpace=wrap;rounded=0;fontSize=31;fontStyle=1" parent="1" vertex="1">
          <mxGeometry x="969" y="120" width="60" height="30" as="geometry" />
        </mxCell>
        <mxCell id="eWdU1vIHaHKnhdsmp3fb-5" value="Infrastructure" style="text;html=1;align=center;verticalAlign=middle;whiteSpace=wrap;rounded=0;fontSize=31;fontStyle=1" parent="1" vertex="1">
          <mxGeometry x="-330" y="990" width="60" height="30" as="geometry" />
        </mxCell>
        <mxCell id="eWdU1vIHaHKnhdsmp3fb-6" value="Presentation" style="text;html=1;align=center;verticalAlign=middle;whiteSpace=wrap;rounded=0;fontSize=31;fontStyle=1" parent="1" vertex="1">
          <mxGeometry x="1009.5" y="1060" width="60" height="30" as="geometry" />
        </mxCell>
        <mxCell id="eWdU1vIHaHKnhdsmp3fb-9" value="Application" style="text;html=1;align=center;verticalAlign=middle;whiteSpace=wrap;rounded=0;fontSize=31;fontStyle=1" parent="1" vertex="1">
          <mxGeometry x="354" y="1140" width="60" height="30" as="geometry" />
        </mxCell>
        <mxCell id="eWdU1vIHaHKnhdsmp3fb-11" value="Domain" style="text;html=1;align=center;verticalAlign=middle;whiteSpace=wrap;rounded=0;fontSize=31;fontStyle=1" parent="1" vertex="1">
          <mxGeometry x="372" y="960" width="60" height="30" as="geometry" />
        </mxCell>
        <mxCell id="eWdU1vIHaHKnhdsmp3fb-13" value="Application" style="text;html=1;align=center;verticalAlign=middle;whiteSpace=wrap;rounded=0;fontSize=31;fontStyle=1" parent="1" vertex="1">
          <mxGeometry x="343" y="36" width="60" height="30" as="geometry" />
        </mxCell>
        <mxCell id="eWdU1vIHaHKnhdsmp3fb-14" value="Domain" style="text;html=1;align=center;verticalAlign=middle;whiteSpace=wrap;rounded=0;fontSize=31;fontStyle=1" parent="1" vertex="1">
          <mxGeometry x="365" y="310" width="60" height="30" as="geometry" />
        </mxCell>
        <mxCell id="2m3COZUi8nTuCEncUUFN-11" style="edgeStyle=orthogonalEdgeStyle;rounded=0;orthogonalLoop=1;jettySize=auto;html=1;entryX=0.75;entryY=1;entryDx=0;entryDy=0;" edge="1" parent="1" source="WUf349sa_xHHxx_Rq2RV-1" target="w6yxfU8nCAinHJ-jUUho-3">
          <mxGeometry relative="1" as="geometry" />
        </mxCell>
        <mxCell id="WUf349sa_xHHxx_Rq2RV-1" value="SOA.Security" style="rounded=1;whiteSpace=wrap;html=1;fillColor=none;fontSize=15;" parent="1" vertex="1">
          <mxGeometry x="60" y="1360" width="204" height="90" as="geometry" />
        </mxCell>
        <mxCell id="2m3COZUi8nTuCEncUUFN-1" value="SOA.DTOs" style="rounded=1;whiteSpace=wrap;html=1;fillColor=none;fontSize=15;" vertex="1" parent="1">
          <mxGeometry x="-190" y="415" width="190" height="80" as="geometry" />
        </mxCell>
      </root>
    </mxGraphModel>
  </diagram>
</mxfile>
